<svg xmlns="http://www.w3.org/2000/svg" width="80" height="80" viewBox="0 0 80 80" fill="none"><circle cx="40" cy="40" r="40" fill="url(#paint0_linear_16_1306)"></circle><path d="M53.62 31.2501H50.5183L42.9083 38.8567C43.1704 39.5247 43.1945 40.2626 42.9766 40.9463C42.7586 41.6299 42.3119 42.2177 41.7115 42.6107C41.1112 43.0038 40.3938 43.1781 39.6801 43.1044C38.9663 43.0307 38.2996 42.7135 37.7922 42.2061C37.2849 41.6987 36.9676 41.0321 36.894 40.3183C36.8203 39.6046 36.9946 38.8872 37.3876 38.2868C37.7807 37.6865 38.3685 37.2398 39.0521 37.0218C39.7358 36.8039 40.4736 36.828 41.1416 37.0901L48.75 29.4817V26.3801C48.7501 25.965 48.915 25.567 49.2083 25.2734L52.0916 22.3901C52.145 22.3364 52.212 22.2982 52.2854 22.2797C52.3588 22.2612 52.4359 22.2631 52.5083 22.2851C52.6566 22.3284 52.7666 22.4517 52.7966 22.6034L53.5633 26.4384L57.3966 27.2051C57.5466 27.2351 57.67 27.3451 57.7133 27.4934C57.7352 27.5655 57.7371 27.6421 57.7189 27.7152C57.7007 27.7883 57.6631 27.855 57.61 27.9084L54.725 30.7917C54.4318 31.0847 54.0344 31.2495 53.62 31.2501Z" fill="white"></path><path d="M24.375 40C24.375 44.144 26.0212 48.1183 28.9515 51.0486C31.8817 53.9788 35.856 55.625 40 55.625C42.0519 55.625 44.0837 55.2209 45.9794 54.4356C47.8751 53.6504 49.5976 52.4995 51.0485 51.0486C52.4995 49.5976 53.6504 47.8751 54.4356 45.9794C55.2208 44.0837 55.625 42.0519 55.625 40C55.625 38.5033 55.415 37.0567 55.0233 35.6883C54.9455 35.3742 54.9925 35.042 55.1546 34.7618C55.3167 34.4816 55.5811 34.2752 55.8922 34.1861C56.2034 34.0969 56.537 34.1319 56.8229 34.2837C57.1088 34.4355 57.3246 34.6923 57.425 35C57.8817 36.59 58.125 38.2667 58.125 40C58.125 50.01 50.01 58.125 40 58.125C29.99 58.125 21.875 50.01 21.875 40C21.875 29.99 29.99 21.875 40 21.875C41.6917 21.8733 43.3733 22.1083 45 22.5733C45.1586 22.6178 45.3069 22.6932 45.4362 22.7952C45.5656 22.8972 45.6735 23.0237 45.7538 23.1676C45.8341 23.3114 45.8852 23.4697 45.9041 23.6333C45.923 23.7969 45.9094 23.9627 45.8641 24.1211C45.8187 24.2794 45.7425 24.4273 45.6398 24.5561C45.5372 24.6849 45.41 24.7921 45.2658 24.8716C45.1215 24.9511 44.9629 25.0013 44.7992 25.0194C44.6355 25.0374 44.4698 25.0229 44.3117 24.9767C42.9094 24.5764 41.4582 24.3739 40 24.375C35.856 24.375 31.8817 26.0212 28.9515 28.9515C26.0212 31.8817 24.375 35.856 24.375 40Z" fill="white"></path><path d="M31.875 39.9999C31.8797 41.1038 32.1093 42.1951 32.5498 43.2073C32.9903 44.2195 33.6325 45.1313 34.4371 45.887C35.2417 46.6427 36.192 47.2265 37.2298 47.6027C38.2676 47.9789 39.3712 48.1396 40.4731 48.0751C41.5751 48.0106 42.6524 47.7221 43.6392 47.2274C44.626 46.7326 45.5016 46.0419 46.2125 45.1974C46.9235 44.353 47.4549 43.3725 47.7742 42.3158C48.0936 41.2591 48.1942 40.1484 48.07 39.0516C48.035 38.8294 48.0608 38.6019 48.1445 38.3932C48.2283 38.1845 48.3669 38.0024 48.5458 37.866C48.7246 37.7297 48.937 37.6443 49.1605 37.6189C49.3839 37.5935 49.6101 37.6289 49.815 37.7216C50.2333 37.9082 50.515 38.3066 50.5517 38.7632C50.8105 40.9553 50.3799 43.1735 49.3198 45.1096C48.2598 47.0457 46.6229 48.6035 44.6366 49.5663C42.6504 50.5292 40.4136 50.8493 38.237 50.4823C36.0604 50.1152 34.0523 49.0792 32.4917 47.5182C30.9315 45.9589 29.8952 43.9528 29.5266 41.778C29.1579 39.6033 29.4751 37.3677 30.4342 35.3813C31.3933 33.3949 32.9468 31.7563 34.8792 30.6925C36.8115 29.6288 39.027 29.1928 41.2183 29.4449C41.384 29.4603 41.5449 29.5086 41.6917 29.5869C41.8384 29.6653 41.9681 29.7722 42.073 29.9013C42.1779 30.0304 42.256 30.1792 42.3027 30.3389C42.3493 30.4986 42.3637 30.6659 42.3448 30.8312C42.3259 30.9965 42.2743 31.1564 42.1928 31.3015C42.1114 31.4466 42.0018 31.5739 41.8705 31.6761C41.7392 31.7782 41.5888 31.8532 41.4282 31.8965C41.2675 31.9398 41.0999 31.9506 40.935 31.9282C39.7967 31.7966 38.6435 31.9072 37.551 32.2528C36.4584 32.5983 35.4513 33.171 34.5958 33.9333C33.7402 34.6955 33.0555 35.6301 32.5866 36.6756C32.1177 37.7211 31.8752 38.854 31.875 39.9999Z" fill="white"></path><defs><linearGradient id="paint0_linear_16_1306" x1="0" y1="0" x2="80" y2="80" gradientUnits="userSpaceOnUse"><stop stop-color="#4297B6"></stop><stop offset="1" stop-color="#034760"></stop></linearGradient></defs></svg>