<svg xmlns="http://www.w3.org/2000/svg" width="80" height="80" viewBox="0 0 80 80" fill="none"><circle cx="40" cy="40" r="40" fill="url(#paint0_linear_16_1307)"></circle><g clip-path="url(#clip0_16_1307)"><path d="M40.0067 59.1667C38.34 59.1667 37.09 56.6667 37.09 56.6667C35.84 54.1667 35.84 50.8333 35.84 48.3333V47.5L27.5067 43.3333V42.9167L30.5117 34.2033C30.8509 33.2196 31.4886 32.3662 32.3359 31.7621C33.1832 31.1581 34.1978 30.8334 35.2384 30.8333H37.505L38.37 35.1467C38.5966 36.28 39.2087 37.2999 40.1024 38.0328C40.996 38.7657 42.116 39.1664 43.2717 39.1667H45M32.5067 49.1667C32.1567 49.1667 31.73 49.3883 31.2784 49.74C28.27 52.0667 27.5067 56.1967 27.5067 60M46.6667 44.1667V41.6667C46.6667 41.0036 46.9301 40.3677 47.3989 39.8989C47.8678 39.4301 48.5037 39.1667 49.1667 39.1667C49.8298 39.1667 50.4656 39.4301 50.9345 39.8989C51.4033 40.3677 51.6667 41.0036 51.6667 41.6667V59.1667M37.2567 27.5C37.2567 27.5 34.59 25.8333 34.59 23.75C34.59 22.9773 34.897 22.2363 35.4433 21.69C35.9897 21.1436 36.7307 20.8367 37.5034 20.8367C38.276 20.8367 39.0171 21.1436 39.5634 21.69C40.1098 22.2363 40.4167 22.9773 40.4167 23.75C40.4167 25.8333 37.7567 27.5 37.7567 27.5H37.2567Z" stroke="white" stroke-width="2.5"></path></g><defs><linearGradient id="paint0_linear_16_1307" x1="0" y1="0" x2="80" y2="80" gradientUnits="userSpaceOnUse"><stop stop-color="#4297B6"></stop><stop offset="1" stop-color="#034760"></stop></linearGradient><clipPath id="clip0_16_1307"><rect width="40" height="40" fill="white" transform="translate(20 20)"></rect></clipPath></defs></svg>