<svg xmlns="http://www.w3.org/2000/svg" width="187" height="57" viewBox="0 0 187 57" fill="none"><g clip-path="url(#clip0_294_220)"><path d="M128.369 43.1475H131.981V44.0369H129.248V45.6632H131.981V46.5428H129.26V49.6625H128.371V43.1455L128.369 43.1475Z" fill="#043851"></path><path d="M136.576 43.1475H137.456V49.6644H136.576V43.1475Z" fill="#043851"></path><path d="M142.399 42.8875L147.218 47.8407V43.1475H148.107V49.9674L143.289 45.0357V49.6644H142.399V42.8856V42.8875Z" fill="#043851"></path><path d="M156.981 43.8746L156.26 44.4532C156.07 44.2558 155.897 44.1072 155.742 44.0115C155.588 43.9157 155.363 43.8649 155.072 43.8649C154.751 43.8649 154.493 43.9372 154.294 44.0818C154.094 44.2265 153.995 44.4122 153.995 44.6409C153.995 44.8383 154.081 45.0123 154.255 45.1628C154.429 45.3133 154.726 45.4794 155.144 45.6593C155.562 45.8391 155.889 46.0072 156.121 46.1616C156.354 46.316 156.545 46.4881 156.696 46.6757C156.847 46.8634 156.958 47.0608 157.03 47.268C157.105 47.4752 157.14 47.6961 157.14 47.9267C157.14 48.4682 156.942 48.9295 156.549 49.3126C156.157 49.6938 155.68 49.8853 155.121 49.8853C154.561 49.8853 154.092 49.7368 153.676 49.4377C153.258 49.1386 152.937 48.691 152.712 48.0948L153.602 47.8446C153.926 48.5776 154.423 48.9451 155.091 48.9451C155.416 48.9451 155.685 48.8474 155.898 48.6539C156.114 48.4603 156.221 48.216 156.221 47.9189C156.221 47.743 156.164 47.5651 156.053 47.3853C155.94 47.2074 155.801 47.0588 155.633 46.9435C155.465 46.8282 155.199 46.6953 154.835 46.5447C154.47 46.3942 154.19 46.2574 153.993 46.1343C153.795 46.0111 153.625 45.8626 153.482 45.6886C153.338 45.5166 153.234 45.3446 153.166 45.1745C153.097 45.0044 153.066 44.8227 153.066 44.6272C153.066 44.16 153.254 43.7632 153.629 43.4329C154.004 43.1045 154.46 42.9403 154.995 42.9403C155.349 42.9403 155.711 43.0165 156.074 43.1709C156.44 43.3254 156.743 43.558 156.985 43.8727L156.981 43.8746Z" fill="#043851"></path><path d="M161.729 43.1475H165.342V44.0369H162.609V45.6632H165.342V46.5428H162.609V48.7829H165.342V49.6625H161.729V43.1455V43.1475Z" fill="#043851"></path><path d="M170.09 43.1475H171.501C172.203 43.1475 172.775 43.3215 173.217 43.6714C173.659 44.0212 173.88 44.4689 173.88 45.0142C173.88 45.4501 173.737 45.8352 173.452 46.1694C173.166 46.5037 172.721 46.7383 172.115 46.8751L174.009 49.6644H172.988L171.18 46.9846H170.981V49.6644H170.092V43.1475H170.09ZM170.981 43.9352V46.2066C172.295 46.234 172.951 45.8528 172.951 45.065C172.951 44.7894 172.875 44.5627 172.721 44.3868C172.568 44.2108 172.363 44.0916 172.107 44.0291C171.851 43.9665 171.476 43.9352 170.981 43.9352Z" fill="#043851"></path><path d="M178 43.1592H178.94L180.987 47.7743L183.049 43.1592H183.997L180.977 49.8853L178.002 43.1592H178Z" fill="#043851"></path><path d="M53.1146 21.5374L34.9638 3.38664C31.1173 -0.459911 24.8808 -0.459911 21.0342 3.38664L2.88349 21.5374C-0.963053 25.3839 -0.963049 31.6204 2.8835 35.467L21.0342 53.6177C24.8808 57.4642 31.1173 57.4642 34.9638 53.6177L53.1146 35.467C56.9611 31.6204 56.9611 25.3839 53.1146 21.5374Z" fill="#034760"></path><path d="M64.1061 37.7897C62.8492 37.2521 61.8563 36.48 61.1252 35.4695C60.3941 34.4608 60.0188 33.2685 59.9973 31.8924H64.8313C64.8958 32.8169 65.2222 33.546 65.8145 34.0836C66.4048 34.6211 67.216 34.8889 68.2481 34.8889C69.2802 34.8889 70.1285 34.6368 70.7286 34.1325C71.3307 33.6281 71.6317 32.9675 71.6317 32.1504C71.6317 31.4838 71.4264 30.9365 71.0199 30.5065C70.6113 30.0765 70.1012 29.7383 69.4893 29.492C68.8775 29.2457 68.0331 28.9721 66.96 28.671C65.4978 28.241 64.3114 27.8168 63.3985 27.3985C62.4857 26.9802 61.7018 26.3469 61.047 25.4966C60.3922 24.6483 60.0638 23.5146 60.0638 22.0974C60.0638 20.7663 60.3961 19.6052 61.0627 18.6181C61.7273 17.6309 62.6635 16.8725 63.8657 16.3467C65.0678 15.8209 66.4439 15.557 67.9901 15.557C70.3103 15.557 72.1946 16.12 73.645 17.2478C75.0954 18.3757 75.8949 19.9492 76.0454 21.9684H71.0824C71.0394 21.1943 70.711 20.5552 70.0992 20.0508C69.4874 19.5465 68.6762 19.2944 67.6656 19.2944C66.784 19.2944 66.0803 19.5192 65.5545 19.9707C65.0287 20.4222 64.7648 21.0771 64.7648 21.9371C64.7648 22.5392 64.9623 23.0376 65.361 23.4364C65.7578 23.8332 66.2524 24.1557 66.8427 24.4039C67.433 24.6502 68.2657 24.9356 69.3408 25.2581C70.8009 25.6882 71.9933 26.1182 72.9179 26.5463C73.8405 26.9763 74.636 27.6214 75.3026 28.4795C75.9691 29.3395 76.3014 30.4674 76.3014 31.8631C76.3014 33.0671 75.9906 34.1833 75.3671 35.2134C74.7435 36.2455 73.8307 37.0665 72.6286 37.6783C71.4245 38.2901 69.9976 38.597 68.3419 38.597C66.7743 38.597 65.361 38.3292 64.1042 37.7916L64.1061 37.7897Z" fill="#034760"></path><path d="M123.818 15.8776V38.3702H119.307V23.7413L113.28 38.3702H109.866L103.808 23.7413V38.3702H99.2965V15.8776H104.42L111.574 32.6019L118.726 15.8776H123.818Z" fill="#034760"></path><path d="M143.205 19.2611C142.593 18.2095 141.674 17.3807 140.449 16.7806C139.225 16.1786 137.743 15.8776 136.004 15.8776H127.722V38.3702H132.233V29.7344H136.006C137.853 29.7344 139.383 29.4138 140.597 28.7688C141.811 28.1237 142.704 27.2754 143.271 26.2238C143.84 25.1721 144.125 24.0423 144.125 22.8402C144.125 21.5071 143.82 20.3167 143.209 19.2631L143.205 19.2611ZM138.58 25.2386C137.978 25.8074 137.055 26.0928 135.808 26.0928H132.231V19.5524H135.808C138.257 19.5524 139.481 20.647 139.481 22.8382C139.481 23.8703 139.18 24.6678 138.578 25.2386H138.58Z" fill="#034760"></path><path d="M185.369 21.2119C184.392 19.5035 183.004 18.188 181.214 17.2634C179.419 16.3389 177.34 15.8776 174.978 15.8776H167.115V38.3702H174.978C177.342 38.3702 179.419 37.9089 181.214 36.9843C183.006 36.0598 184.394 34.756 185.369 33.0691C186.347 31.3822 186.835 29.4119 186.835 27.1561C186.835 24.9004 186.347 22.9184 185.369 21.21V21.2119ZM180.295 32.6039C179.005 33.892 177.181 34.5351 174.816 34.5351H171.628V19.6814H174.816C177.181 19.6814 179.005 20.3421 180.295 21.6635C181.585 22.9848 182.228 24.8164 182.228 27.1581C182.228 29.4998 181.583 31.3138 180.295 32.6039Z" fill="#034760"></path><path d="M89.7634 15.8463H84.5112L76.4227 38.3702H81.1589L82.6425 34.0855L83.8661 30.4752L87.1207 21.0673L90.2814 30.2035L90.3753 30.4752L91.7416 34.498L91.7592 34.5488L93.0805 38.3722H97.85L89.7595 15.8483L89.7634 15.8463Z" fill="#034760"></path><path d="M159.61 26.9177L155.812 29.2223L156.153 30.2035L156.246 30.4752L157.054 32.856L160.858 30.3951L159.609 26.9177H159.61Z" fill="#034760"></path><path d="M163.723 38.3702H158.954L157.632 34.5488L157.613 34.498L157.056 32.856L160.86 30.3951L163.723 38.3702Z" fill="#034760"></path><path d="M159.611 26.9177L155.814 29.2223L152.992 21.0673L150.492 28.2938L149.737 30.4752L149.264 31.8748L148.514 34.0855L147.03 38.3702H142.294L150.382 15.8463H155.635L159.611 26.9177Z" fill="#034760"></path><path d="M164.184 28.1276L160.68 30.3951L156.874 32.856L153.119 35.2838L149.082 31.8748L149.555 30.4752L150.31 28.2938L153.162 30.7215L155.633 29.2223L159.429 26.9177L162.998 24.7519L164.184 28.1276Z" fill="#034760"></path><path d="M28.1222 8.57484C30.3877 10.727 30.4326 14.3236 28.2238 16.5324L19.373 25.3833C17.5258 27.2304 17.5258 30.2231 19.373 32.0703L24.1326 36.8299C21.8437 39.1189 18.1317 39.1189 15.8428 36.8299L14.3572 35.3444C10.7059 31.693 10.7235 25.7683 14.3963 22.1385L28.1222 8.57484Z" fill="white"></path><path d="M28.0655 32.8717L23.9978 28.804L30.0769 22.7249C33.4585 19.3432 38.9394 19.3432 42.321 22.7249C45.6558 26.0596 45.6558 31.4643 42.321 34.799L36.1618 40.9582L32.0218 36.8182L38.3433 30.4967C39.4301 29.4099 39.4301 27.6487 38.3433 26.5619C37.2584 25.4771 35.5011 25.4751 34.4143 26.5561L28.0655 32.8717Z" fill="white"></path><path d="M32.2563 44.7953L28.2512 40.7901L24.1209 44.9204C26.3551 47.1546 29.9869 47.1292 32.1899 44.8637L32.2544 44.7973L32.2563 44.7953Z" fill="white"></path><path d="M89.3334 32.0927C89.3334 30.8799 88.3501 29.8966 87.1373 29.8966C85.9244 29.8966 84.9412 30.8799 84.9412 32.0927C84.9412 33.3056 85.9244 34.2888 87.1373 34.2888C88.3501 34.2888 89.3334 33.3056 89.3334 32.0927Z" fill="#034760"></path></g><defs><clipPath id="clip0_294_220"><rect width="186.835" height="56" fill="white" transform="translate(0 0.5)"></rect></clipPath></defs></svg>